<svg width="88" height="123" viewBox="0 0 88 123" fill="none" xmlns="http://www.w3.org/2000/svg">
<path d="M85.31 74.93C84.29 84.45 83.44 89.72 80.89 92.61C78.85 94.82 75.96 95.5 70.69 95.5C60.32 95.5 49.44 91.42 35.16 91.42C23.94 91.42 11.36 96.86 5.07 104.68C10.34 91.42 21.73 83.43 39.58 74.42C61.68 63.88 85.31 55.04 85.31 31.75C85.31 10.84 67.29 0.299994 42.47 0.299994C11.87 0.299994 0.140001 20.19 0.140001 32.94C0.140001 43.99 7.96 54.19 17.99 54.19C25.47 54.19 31.25 48.75 32.1 40.25C22.58 35.66 13.06 25.63 13.06 18.83C13.06 9.98999 23.43 3.19 35.67 3.19C50.29 3.19 56.92 13.22 56.92 32.09C56.92 52.32 48.76 62.18 31.76 74.42C16.46 85.64 0.140001 94.65 0.140001 121H3.2C3.03 115.9 3.2 111.99 4.22 107.74C7.96 102.3 11.7 100.6 16.29 100.6C30.4 100.6 40.77 122.7 60.66 122.7C80.55 122.7 84.63 101.28 87.01 75.1L85.31 74.93Z" fill="black"/>
</svg>
