<svg width="88" height="123" viewBox="0 0 88 123" fill="none" xmlns="http://www.w3.org/2000/svg">
<path d="M45.51 58.1C60.98 55.89 84.95 49.6 84.95 28.35C84.95 7.26999 60.3 0.299994 42.11 0.299994C16.95 0.299994 3.01 13.9 3.01 28.86C3.01 38.72 8.62 46.88 17.46 46.88C24.43 46.88 29.87 42.46 31.06 35.49C24.94 30.39 16.95 22.23 16.95 14.92C16.95 12.71 17.97 10.5 19.67 8.96999C24.43 4.37999 32.93 2.34 39.56 2.34C53.84 2.34 59.11 9.64999 59.11 28.35C59.11 47.05 55.2 55.72 40.92 57.59C35.99 57.08 31.57 56.91 28.34 57.08V59.97C50.44 57.08 60.13 61.5 60.13 88.87C60.13 111.99 52.48 120.66 37.18 120.66C30.38 120.66 21.88 118.79 17.63 114.03C15.76 111.99 14.91 109.61 14.91 106.89C14.91 99.92 24.43 90.23 30.72 85.47C29.36 77.99 23.92 73.23 16.78 73.23C7.43 73.23 0.97 82.24 0.97 91.59C0.97 104.68 10.83 122.7 38.88 122.7C68.29 122.7 87.84 110.8 87.84 90.74C87.84 69.15 64.21 60.82 45.51 58.1Z" fill="black"/>
</svg>
