<svg width="88" height="123" viewBox="0 0 88 123" fill="none" xmlns="http://www.w3.org/2000/svg">
<path d="M43.62 45.18C30.19 45.18 18.8 49.77 11.66 58.61L15.23 31.75C27.81 32.77 38.01 34.13 55.18 34.13C76.26 34.13 81.7 30.56 84.59 0.469991H82.89C82.21 4.89 81.02 8.11999 78.47 9.98999C75.41 12.54 69.29 12.88 66.4 12.88C52.29 12.88 29.68 5.90999 18.97 1.99999H17.1L9.28 62.01C8.43 63.54 7.41 65.24 6.73 67.11L9.28 67.96C13.19 55.04 25.77 48.07 38.01 48.07C55.01 48.07 60.11 59.12 60.11 83.26C60.11 107.74 53.48 120.66 36.82 120.66C30.36 120.66 21.86 118.96 17.61 114.2C15.91 112.16 14.89 109.61 14.89 106.89C14.89 99.92 24.41 90.23 30.7 85.47C29.34 77.99 23.9 73.23 16.76 73.23C7.24 73.23 0.95 82.24 0.95 91.59C0.95 104.68 10.47 122.7 37.84 122.7C60.28 122.7 87.82 109.27 87.82 83.26C87.82 59.29 68.27 45.18 43.62 45.18Z" fill="black"/>
</svg>
