<svg width="88" height="123" viewBox="0 0 88 123" fill="none" xmlns="http://www.w3.org/2000/svg">
<path d="M53.33 47.56C40.41 47.56 31.4 54.87 27.83 66.94V65.58C27.83 26.82 31.91 2.34 52.31 2.34C58.77 2.34 64.89 4.20999 68.97 8.11999C70.5 9.48 71.69 11.52 71.69 13.73C71.86 20.36 63.87 27.84 57.75 32.6C58.77 39.4 64.55 43.14 71.01 43.14C80.02 43.14 85.63 35.83 85.63 26.48C85.63 11.35 70.16 0.299994 51.8 0.299994C21.71 0.299994 0.8 28.18 0.8 61.5C0.8 100.77 21.54 122.7 45.17 122.7C68.29 122.7 87.84 107.57 87.84 84.45C87.84 61.16 72.37 47.56 53.33 47.56ZM45.17 120.66C34.8 120.66 28.85 111.14 28 75.78L28.34 75.95C28.34 67.62 34.63 51.3 47.21 51.3C56.56 51.3 60.98 66.43 60.98 87.51C60.98 109.61 53.67 120.66 45.17 120.66Z" fill="black"/>
</svg>
