<svg width="92" height="123" viewBox="0 0 92 123" fill="none" xmlns="http://www.w3.org/2000/svg">
<path d="M91.35 1.99999H88.12L84.55 9.64999C80.64 15.43 76.56 17.3 72.31 17.3C57.86 17.3 48.34 0.299994 28.62 0.299994C14.85 0.299994 8.22 8.28999 4.31 28.01H3.8L6.52 1.99999H4.82L0.23 47.05H1.76C2.78 37.53 3.8 32.09 6.18 29.37C8.22 27.16 11.28 26.48 16.38 26.48C26.41 26.48 39.84 30.73 52.59 30.73C64.49 30.73 74.69 23.42 81.49 15.6C57.35 57.08 23.86 79.18 23.86 105.53C23.86 116.24 30.49 122.53 41.03 122.7C47.32 122.7 53.95 120.49 57.52 115.73C53.1 109.27 51.06 101.96 51.06 94.14C51.06 66.09 77.58 25.29 91.35 1.99999Z" fill="black"/>
</svg>
