<svg width="88" height="123" viewBox="0 0 88 123" fill="none" xmlns="http://www.w3.org/2000/svg">
<path d="M57.75 49.43C70.16 45.35 82.06 37.19 82.06 24.61C82.06 8.45999 64.72 0.299994 46.02 0.299994C24.43 0.299994 5.73 11.69 5.73 32.94C5.73 48.41 15.25 57.42 26.98 64.22C9.81 69.49 0.46 80.03 0.46 93.46C0.46 113.18 21.37 122.7 41.94 122.7C66.42 122.7 87.5 109.44 87.5 84.79C87.5 66.09 73.05 57.25 57.75 49.43ZM20.86 20.02C20.86 8.28999 32.42 2.34 45.51 2.34C61.32 2.34 68.46 10.5 68.46 22.74C68.46 32.77 63.7 42.29 55.03 48.07L52.14 46.71C31.23 36.68 20.86 31.24 20.86 20.02ZM42.96 120.66C24.77 120.66 15.08 109.78 15.08 93.8C15.08 82.58 20.01 71.7 29.53 65.58C32.93 67.45 36.33 69.15 39.9 70.85C60.98 80.88 72.2 85.81 72.2 98.73C72.2 114.03 59.11 120.66 42.96 120.66Z" fill="black"/>
</svg>
