<svg width="30" height="30" viewBox="0 0 30 30" fill="none" xmlns="http://www.w3.org/2000/svg">
<path d="M26.9531 15C26.9531 12.6359 26.2521 10.3249 24.9387 8.3592C23.6252 6.39352 21.7584 4.86146 19.5743 3.95676C17.3901 3.05205 14.9867 2.81534 12.6681 3.27656C10.3494 3.73777 8.21954 4.87619 6.54787 6.54787C4.87619 8.21954 3.73777 10.3494 3.27656 12.6681C2.81534 14.9867 3.05205 17.3901 3.95676 19.5743C4.86146 21.7584 6.39352 23.6252 8.3592 24.9387C10.3249 26.2521 12.6359 26.9531 15 26.9531C18.1692 26.95 21.2077 25.6897 23.4487 23.4487C25.6897 21.2077 26.95 18.1692 26.9531 15ZM15.7031 25.5234V17.5781H18.75C18.9365 17.5781 19.1153 17.5041 19.2472 17.3722C19.3791 17.2403 19.4531 17.0615 19.4531 16.875C19.4531 16.6885 19.3791 16.5097 19.2472 16.3778C19.1153 16.246 18.9365 16.1719 18.75 16.1719H15.7031V13.125C15.7062 12.5665 15.9294 12.0318 16.3244 11.6369C16.7193 11.2419 17.254 11.0187 17.8125 11.0156H19.6875C19.874 11.0156 20.0528 10.9416 20.1847 10.8097C20.3166 10.6778 20.3906 10.499 20.3906 10.3125C20.3906 10.126 20.3166 9.94718 20.1847 9.81532C20.0528 9.68346 19.874 9.60938 19.6875 9.60938H17.8125C16.8811 9.61247 15.9886 9.98386 15.33 10.6425C14.6714 11.3011 14.3 12.1936 14.2969 13.125V16.1719H11.25C11.0635 16.1719 10.8847 16.246 10.7528 16.3778C10.621 16.5097 10.5469 16.6885 10.5469 16.875C10.5469 17.0615 10.621 17.2403 10.7528 17.3722C10.8847 17.5041 11.0635 17.5781 11.25 17.5781H14.2969V25.5234C11.5667 25.341 9.01422 24.1047 7.17856 22.0755C5.3429 20.0462 4.36774 17.383 4.459 14.6483C4.55026 11.9135 5.7008 9.32123 7.66766 7.41892C9.63451 5.5166 12.2637 4.45316 15 4.45316C17.7363 4.45316 20.3655 5.5166 22.3324 7.41892C24.2992 9.32123 25.4498 11.9135 25.541 14.6483C25.6323 17.383 24.6571 20.0462 22.8214 22.0755C20.9858 24.1047 18.4333 25.341 15.7031 25.5234V25.5234Z" fill="white"/>
</svg>
