<svg width="1473" height="120" viewBox="0 0 1473 120" fill="none" xmlns="http://www.w3.org/2000/svg">
<path d="M186.5 22.8C165 22.8 151 37.9 151 59.4C151 80.9 165.5 95.1 184 95.1C195.1 95.1 206 91.2 211.1 82.7V62.7H189.2V65H201.8V87.7C197.7 91.4 191.8 92.8 186 92.8C172.1 92.8 160.3 79.1 160.3 59.2C160.3 39.5 171.1 25.1 186 25.1C195.7 25.1 199.1 32 199.1 39C199.1 42.6 201.2 44.3 204.2 44.3C207.1 44.3 209.5 42.4 209.5 39.2C209.5 31.3 198.6 22.8 186.5 22.8ZM217.406 59.4C217.406 80.9 231.806 95.1 252.306 95.1C272.806 95.1 287.306 80.9 287.306 59.4C287.306 37.9 272.806 23.5 252.306 23.5C231.806 23.5 217.406 37.9 217.406 59.4ZM278.006 59.3C278.006 79.2 266.106 92.8 252.306 92.8C238.506 92.8 226.706 79.2 226.706 59.3C226.706 39.4 238.506 25.8 252.306 25.8C266.106 25.8 278.006 39.4 278.006 59.3ZM293.285 59.4C293.285 80.9 307.685 95.1 328.185 95.1C348.685 95.1 363.185 80.9 363.185 59.4C363.185 37.9 348.685 23.5 328.185 23.5C307.685 23.5 293.285 37.9 293.285 59.4ZM353.885 59.3C353.885 79.2 341.985 92.8 328.185 92.8C314.385 92.8 302.585 79.2 302.585 59.3C302.585 39.4 314.385 25.8 328.185 25.8C341.985 25.8 353.885 39.4 353.885 59.3ZM371.464 24V94H398.764C420.264 94 432.564 80.9 432.564 59.4C432.564 37.9 416.264 24 394.764 24H371.464ZM380.764 26.3H394.764C409.564 26.3 423.264 38.5 423.264 58.2C423.264 78.1 413.564 91.7 398.764 91.7H380.764V26.3ZM439.823 94H449.123V24H439.823V94ZM476.745 26.3C486.545 26.3 494.245 29 500.645 35.1V24H459.745V94H500.745V82.9C494.345 89 486.645 91.7 476.845 91.7H469.045V58.6H492.745V56.3H469.045V26.3H476.745ZM511.308 94H532.608C544.508 94 560.508 88 560.508 73.3C560.508 64.9 555.208 56.8 540.708 54.7C552.608 52.1 556.408 47.5 556.408 40C556.408 28.4 546.308 24 529.608 24H511.308V94ZM520.608 55V26.3H527.608C536.508 26.3 547.108 28.7 547.108 41.2C547.108 48.1 544.408 55 529.608 55H520.608ZM533.008 57.3C545.408 57.3 551.208 65.5 551.208 74.2C551.208 84.9 543.208 91.7 532.608 91.7H520.608V57.3H533.008ZM565.551 59.4C565.551 80.9 579.951 95.1 600.451 95.1C620.951 95.1 635.451 80.9 635.451 59.4C635.451 37.9 620.951 23.5 600.451 23.5C579.951 23.5 565.551 37.9 565.551 59.4ZM626.151 59.3C626.151 79.2 614.251 92.8 600.451 92.8C586.651 92.8 574.851 79.2 574.851 59.3C574.851 39.4 586.651 25.8 600.451 25.8C614.251 25.8 626.151 39.4 626.151 59.3ZM680.352 94H691.452L667.452 56.2L692.252 24H689.252L666.152 54.1L647.052 24H635.952L660.052 62L635.352 94H638.352L661.352 64.1L680.352 94Z" fill="black"/>
<line y1="59.5" x2="96" y2="59.5" stroke="black"/>
<line x1="722" y1="59.5" x2="1473" y2="59.5" stroke="black"/>
</svg>
