<svg width="364" height="378" viewBox="0 0 364 378" fill="none" xmlns="http://www.w3.org/2000/svg">
<rect width="364" height="378" fill="#681543"/>
<path d="M146.901 70.1893C138.503 70.1893 133.035 76.0873 133.035 84.4852C133.035 92.8831 138.699 98.4297 145.925 98.4297C150.26 98.4297 154.518 96.9063 156.51 93.5862V85.7742H147.956V86.6726H152.877V95.5392C151.276 96.9844 148.971 97.5313 146.706 97.5313C141.277 97.5313 136.668 92.1801 136.668 84.4071C136.668 76.7123 140.886 71.0877 146.706 71.0877C150.495 71.0877 151.823 73.7828 151.823 76.517C151.823 77.9232 152.643 78.5872 153.815 78.5872C154.948 78.5872 155.885 77.845 155.885 76.5951C155.885 73.5094 151.627 70.1893 146.901 70.1893ZM169.402 98.4297C175.691 98.4297 179.909 93.9768 179.909 87.6882C179.909 81.3995 175.691 76.9076 169.402 76.9076C163.153 76.9076 158.973 81.3995 158.973 87.6882C158.973 93.9768 163.153 98.4297 169.402 98.4297ZM169.402 97.7656C165.106 97.7656 162.606 93.5081 162.606 87.6882C162.606 81.8682 165.106 77.5716 169.402 77.5716C173.738 77.5716 176.277 81.8682 176.277 87.6491C176.277 93.469 173.738 97.7656 169.402 97.7656ZM183.179 96.7891C184.546 97.4532 188.1 98.4297 190.327 98.4297C193.92 98.4297 198.022 96.1642 198.022 91.516C198.022 84.1728 184.624 86.6726 184.624 81.0089C184.624 78.6653 186.382 77.4935 188.647 77.4935C191.538 77.4935 194.858 79.3293 195.991 85.2274C195.991 85.3055 196.459 85.2274 196.459 85.1102L195.6 78.1966C193.413 77.6107 190.756 76.9076 188.53 76.9076C185.757 76.9076 182.241 78.2747 182.241 82.5322C182.241 90.3052 195.639 87.61 195.639 93.469C195.639 95.8517 193.491 97.8438 190.21 97.8438C187.436 97.8438 184.155 95.1486 182.827 89.6412C182.788 89.4459 182.241 89.6021 182.241 89.7193L183.179 96.7891ZM205.516 98V82.8447L207.156 80.9308C208.445 79.4074 209.852 78.7825 211.062 78.7825C213.328 78.7825 215.086 80.8527 215.086 83.3134V95.0705C215.086 96.1642 215.437 98.3515 218.015 98.3515C219.656 98.3515 221.413 97.2579 222.429 95.8517C222.507 95.6955 222.077 95.3049 221.921 95.5002C221.257 96.3985 220.632 96.8282 219.968 96.8282C219.07 96.8282 218.718 96.047 218.718 94.9533V83.3134C218.718 79.2512 216.257 76.9467 213.211 76.9467C211.102 76.9467 208.68 78.0794 206.649 80.5402L205.516 81.9073V69.0175C205.516 68.705 205.321 68.6659 204.93 68.7441C203.25 69.0565 200.946 69.33 199.305 69.6424C199.149 69.6815 199.149 70.1893 199.344 70.1893C201.649 70.0721 201.883 71.6736 201.883 73.9781V98H205.516ZM88.2552 202H91.8878V189.501C93.4112 189.501 95.2079 189.462 96.4969 189.345L104.153 202H108.41L100.325 188.641C104.231 187.626 106.262 185.595 106.262 182.236C106.262 175.01 100.676 174.658 92.2784 174.658H88.2552V202ZM91.8878 175.595C97.6687 175.595 102.629 175.244 102.629 181.767C102.629 187.587 98.5671 188.602 91.8878 188.602V175.595ZM114.545 202.391C118.295 202.391 120.677 199.031 121.537 196.297H121.615V199.149C121.615 200.242 121.966 202.43 124.544 202.43C126.185 202.43 127.904 201.336 128.919 199.93C128.997 199.774 128.529 199.383 128.411 199.578C127.708 200.477 127.122 200.906 126.458 200.906C125.56 200.906 125.208 200.125 125.208 199.031V187.704C125.208 182.001 121.537 180.908 117.904 180.908C115.092 180.908 108.959 183.251 108.959 186.767C108.959 187.821 109.819 188.329 110.678 188.329C111.498 188.329 112.358 187.821 112.358 186.806C112.358 183.915 113.959 181.728 116.732 181.728C119.271 181.728 121.576 183.525 121.576 187.352V189.345C119.857 189.657 118.334 189.97 117.006 190.321C110.405 192.04 108.53 194.383 108.53 197.43C108.53 200.477 111.264 202.391 114.545 202.391ZM116.029 200.32C113.881 200.32 112.006 198.797 112.006 196.453C112.006 194.891 112.28 192.508 117.201 190.907C118.373 190.555 119.818 190.204 121.576 189.93V194.852C120.56 198.133 118.724 200.32 116.029 200.32ZM129.635 174.189C131.94 174.072 132.174 175.674 132.174 177.978V202H132.995L134.791 200.75C135.572 201.336 137.291 202.43 140.26 202.43C145.962 202.43 150.728 198.094 150.728 191.141C150.728 184.15 146.47 180.908 142.095 180.908C139.166 180.908 137.018 182.392 135.768 184.032L135.807 173.017C135.807 172.705 135.612 172.666 135.221 172.744C133.541 173.057 131.237 173.33 129.596 173.642C129.44 173.681 129.44 174.189 129.635 174.189ZM135.768 199.461V185.087C136.979 183.29 138.307 182.548 140.689 182.548C144.517 182.548 147.095 185.985 147.095 191.727C147.095 198.406 143.189 201.844 140.025 201.844C138.033 201.844 136.666 200.633 135.768 199.461ZM159.212 202.391C162.962 202.391 165.345 199.031 166.204 196.297H166.282V199.149C166.282 200.242 166.634 202.43 169.212 202.43C170.852 202.43 172.571 201.336 173.586 199.93C173.665 199.774 173.196 199.383 173.079 199.578C172.376 200.477 171.79 200.906 171.126 200.906C170.227 200.906 169.876 200.125 169.876 199.031V187.704C169.876 182.001 166.204 180.908 162.571 180.908C159.759 180.908 153.627 183.251 153.627 186.767C153.627 187.821 154.486 188.329 155.345 188.329C156.166 188.329 157.025 187.821 157.025 186.806C157.025 183.915 158.626 181.728 161.4 181.728C163.939 181.728 166.243 183.525 166.243 187.352V189.345C164.524 189.657 163.001 189.97 161.673 190.321C155.072 192.04 153.197 194.383 153.197 197.43C153.197 200.477 155.931 202.391 159.212 202.391ZM160.697 200.32C158.548 200.32 156.673 198.797 156.673 196.453C156.673 194.891 156.947 192.508 161.868 190.907C163.04 190.555 164.485 190.204 166.243 189.93V194.852C165.228 198.133 163.392 200.32 160.697 200.32ZM182.388 202.43C184.419 202.43 185.903 201.063 187.544 198.485C187.622 198.328 187.153 197.977 187.036 198.133C185.825 199.93 184.849 200.594 183.677 200.594C182.193 200.594 181.138 199.5 181.138 196.805V182.548H186.06L186.606 181.376H181.177V174.541C181.177 174.385 180.669 174.306 180.591 174.541C179.888 178.212 177.779 181.533 174.498 181.533L174.342 182.548H177.506V197C177.506 200.906 179.732 202.43 182.388 202.43ZM194.054 202V192.469C195.147 191.415 196.202 190.438 197.296 189.384C197.92 189.11 198.545 188.954 199.092 188.954C201.162 188.954 202.686 190.751 202.686 193.797V199.07C202.686 200.164 203.037 202.352 205.615 202.352C207.256 202.352 209.014 201.258 210.029 199.852C210.107 199.695 209.678 199.305 209.521 199.5C208.857 200.399 208.232 200.828 207.568 200.828C206.67 200.828 206.318 200.047 206.318 198.953V194.188C206.318 190.126 203.858 187.821 200.811 187.821C200.069 187.821 199.249 187.938 198.467 188.251L205.772 181.376H204.522L194.054 191.337V173.017C194.054 172.705 193.858 172.666 193.468 172.744C191.788 173.057 189.484 173.33 187.843 173.642C187.687 173.681 187.687 174.189 187.882 174.189C190.187 174.072 190.421 175.674 190.421 177.978V202H194.054ZM221.679 202.43C227.968 202.43 232.186 197.977 232.186 191.688C232.186 185.399 227.968 180.908 221.679 180.908C215.43 180.908 211.25 185.399 211.25 191.688C211.25 197.977 215.43 202.43 221.679 202.43ZM221.679 201.766C217.383 201.766 214.883 197.508 214.883 191.688C214.883 185.868 217.383 181.572 221.679 181.572C226.015 181.572 228.554 185.868 228.554 191.649C228.554 197.469 226.015 201.766 221.679 201.766ZM243.151 202.43C246.041 202.43 248.189 200.945 249.439 199.344C249.478 200.477 249.947 202.43 252.369 202.43C254.009 202.43 255.728 201.336 256.744 199.93C256.822 199.774 256.392 199.383 256.236 199.578C255.572 200.477 254.947 200.906 254.283 200.906C253.384 200.906 253.072 200.125 253.072 199.031V173.017C253.072 172.705 252.877 172.666 252.486 172.744L246.861 173.642C246.705 173.681 246.705 174.189 246.9 174.189C249.205 174.072 249.439 175.674 249.439 177.978V181.923C248.502 181.415 247.057 180.908 244.987 180.908C239.284 180.908 234.518 185.243 234.518 192.196C234.518 199.188 238.776 202.43 243.151 202.43ZM245.221 181.493C247.174 181.493 248.541 182.665 249.439 183.837V198.289C248.268 200.047 246.9 200.789 244.557 200.789C240.729 200.789 238.151 197.352 238.151 191.61C238.151 184.931 242.057 181.493 245.221 181.493ZM258.473 191.923C258.473 197.86 262.809 202.391 268.785 202.391C273.16 202.391 275.621 199.5 277.652 195.399C277.691 195.282 277.339 194.93 277.222 195.125C275.582 197.782 273.472 200.203 270.035 200.203C264.528 200.203 262.106 195.36 262.106 191.454V190.712H272.964C275.738 190.712 277.066 189.11 277.066 187.157C277.066 184.345 274.449 180.908 269.449 180.908C263.16 180.908 258.473 185.556 258.473 191.923ZM262.106 190.126C262.731 185.517 265.66 181.493 269.293 181.493C272.73 181.493 274.214 183.954 274.214 186.259C274.214 188.251 273.082 190.126 271.129 190.126H262.106ZM162.86 298.071C162.626 290.024 155.283 288.111 149.346 288.071L150.283 281.783H160.79L162.431 278.658H149.814L148.018 291.079C152.47 291.079 159.228 291.899 159.228 298.852C159.228 302.25 156.767 305.141 152.978 305.063C151.26 305.023 148.682 303.656 147.94 301.977L147.236 302.289C148.369 304.828 151.338 306.273 154.033 306.352C158.681 306.469 162.939 302.797 162.86 298.071ZM176.68 306.43C183.594 306.43 188.32 300.883 188.32 292.329C188.32 283.775 183.594 278.228 176.641 278.228C169.727 278.228 165.001 283.775 165.001 292.329C165.001 300.883 169.727 306.43 176.68 306.43ZM176.641 305.57C171.915 305.57 168.556 300.102 168.556 292.329C168.556 284.556 171.915 279.088 176.641 279.088C181.406 279.088 184.765 284.556 184.765 292.329C184.765 300.102 181.406 305.57 176.641 305.57ZM199.472 306L208.847 278.658H210.448L201.113 306H199.472ZM198.535 278.306C195.644 278.306 192.988 280.923 192.988 285.611C192.988 290.298 195.644 292.72 198.535 292.72C201.425 292.72 204.081 290.298 204.081 285.611C204.081 280.923 201.425 278.306 198.535 278.306ZM198.535 292.407C196.972 292.407 195.058 291.118 195.058 285.572C195.058 280.025 196.972 278.619 198.535 278.619C200.097 278.619 202.011 280.025 202.011 285.572C202.011 291.118 200.097 292.407 198.535 292.407ZM211.503 291.899C208.612 291.899 205.917 294.516 205.917 299.204C205.917 303.891 208.612 306.312 211.503 306.312C214.393 306.312 217.049 303.891 217.049 299.204C217.049 294.516 214.393 291.899 211.503 291.899ZM211.503 306C209.94 306 207.987 304.711 207.987 299.164C207.987 293.618 209.94 292.212 211.503 292.212C213.026 292.212 214.979 293.618 214.979 299.164C214.979 304.711 213.026 306 211.503 306Z" fill="#D9D1DE"/>
</svg>
