<svg width="86" height="76" viewBox="0 0 86 76" fill="none" xmlns="http://www.w3.org/2000/svg">
<path d="M31.7371 24.3914C38.3671 20.2514 46.897 19.3014 54.267 21.8814C54.007 21.8314 53.7471 21.7714 53.4971 21.7214" stroke="#681543" stroke-width="4" stroke-miterlimit="10" stroke-linecap="round"/>
<path d="M12.877 19.4813C12.107 18.1713 11.137 16.9513 9.86701 16.1313C8.59701 15.3113 6.98698 14.9213 5.52698 15.3313C3.24698 15.9713 1.82697 18.5013 2.01697 20.8613C2.20697 23.2213 3.77696 25.3113 5.75696 26.6113C7.73696 27.9113 10.077 28.5313 12.417 28.9213" stroke="#681543" stroke-width="4" stroke-miterlimit="10" stroke-linecap="round"/>
<path d="M26.277 16.7313C18.577 20.3013 12.957 28.0113 11.937 36.4313C10.917 44.8513 14.507 53.6913 21.007 59.4013C20.197 63.5513 19.887 67.8013 20.047 72.2813C24.407 73.2313 28.927 73.4913 33.367 73.1613L34.327 66.0113" stroke="#681543" stroke-width="4" stroke-miterlimit="10" stroke-linecap="round"/>
<path d="M30.0168 64.8314C38.8468 66.0214 47.8168 66.2614 56.6968 65.5614" stroke="#681543" stroke-width="4" stroke-miterlimit="10" stroke-linecap="round"/>
<path d="M52.647 65.6013L52.997 70.9613C53.027 71.3513 53.057 71.7713 53.297 72.0813C53.617 72.4913 54.207 72.5813 54.727 72.6213C58.987 72.9813 63.297 72.7113 67.497 71.9313C67.697 68.5213 67.407 65.0813 66.637 61.7513" stroke="#681543" stroke-width="4" stroke-miterlimit="10" stroke-linecap="round"/>
<path d="M64.407 61.7014C69.247 59.4914 73.467 55.9214 75.387 52.3314C77.387 52.4614 79.397 52.5814 81.717 52.7214C82.597 49.7914 83.277 46.8114 83.737 43.7814C83.897 42.7614 84.007 41.6414 83.487 40.7514C82.617 39.2714 80.557 39.1814 78.847 39.2714" stroke="#681543" stroke-width="4" stroke-miterlimit="10" stroke-linecap="round"/>
<path d="M56.397 13.6314C58.397 14.3214 60.207 15.5514 61.317 16.8114C63.377 15.1714 65.547 13.4914 68.127 12.9314C70.707 12.3714 73.797 13.2714 74.917 15.6614C76.127 18.2614 74.507 21.4214 72.187 23.0914C75.947 27.4914 78.207 33.1514 78.517 38.9414" stroke="#681543" stroke-width="4" stroke-miterlimit="10" stroke-linecap="round"/>
<path d="M66.4568 31.2614V36.2414" stroke="#681543" stroke-width="4" stroke-miterlimit="10" stroke-linecap="round"/>
<path d="M34.8268 18.2313C32.5968 16.5713 31.7268 13.5413 32.0268 10.7713C32.2968 8.28134 33.4368 5.87134 35.3068 4.21134C37.1768 2.55134 39.7768 1.69134 42.2468 2.10134C45.1368 2.57134 47.5968 4.73134 48.8368 7.38134C50.0768 10.0313 50.1968 13.1213 49.5968 15.9813" stroke="#681543" stroke-width="4" stroke-miterlimit="10" stroke-linecap="round"/>
</svg>
