<svg width="84" height="74" viewBox="0 0 84 74" fill="none" xmlns="http://www.w3.org/2000/svg">
<path d="M30.7371 23.3914C37.3671 19.2514 45.897 18.3014 53.267 20.8814C53.007 20.8314 52.7471 20.7714 52.4971 20.7214" stroke="#681543" stroke-width="2" stroke-miterlimit="10" stroke-linecap="round"/>
<path d="M11.877 18.4813C11.107 17.1713 10.137 15.9513 8.86701 15.1313C7.59701 14.3113 5.98698 13.9213 4.52698 14.3313C2.24698 14.9713 0.826974 17.5013 1.01697 19.8613C1.20697 22.2213 2.77696 24.3113 4.75696 25.6113C6.73696 26.9113 9.077 27.5313 11.417 27.9213" stroke="#681543" stroke-width="2" stroke-miterlimit="10" stroke-linecap="round"/>
<path d="M25.277 15.7313C17.577 19.3013 11.957 27.0113 10.937 35.4313C9.91702 43.8513 13.507 52.6913 20.007 58.4013C19.197 62.5513 18.887 66.8013 19.047 71.2813C23.407 72.2313 27.927 72.4913 32.367 72.1613L33.327 65.0113" stroke="#681543" stroke-width="2" stroke-miterlimit="10" stroke-linecap="round"/>
<path d="M29.0168 63.8314C37.8468 65.0214 46.8168 65.2614 55.6968 64.5614" stroke="#681543" stroke-width="2" stroke-miterlimit="10" stroke-linecap="round"/>
<path d="M51.647 64.6013L51.997 69.9613C52.027 70.3513 52.057 70.7713 52.297 71.0813C52.617 71.4913 53.207 71.5813 53.727 71.6213C57.987 71.9813 62.297 71.7113 66.497 70.9313C66.697 67.5213 66.407 64.0813 65.637 60.7513" stroke="#681543" stroke-width="2" stroke-miterlimit="10" stroke-linecap="round"/>
<path d="M63.407 60.7014C68.247 58.4914 72.467 54.9214 74.387 51.3314C76.387 51.4614 78.397 51.5814 80.717 51.7214C81.597 48.7914 82.277 45.8114 82.737 42.7814C82.897 41.7614 83.007 40.6414 82.487 39.7514C81.617 38.2714 79.557 38.1814 77.847 38.2714" stroke="#681543" stroke-width="2" stroke-miterlimit="10" stroke-linecap="round"/>
<path d="M55.397 12.6314C57.397 13.3214 59.207 14.5514 60.317 15.8114C62.377 14.1714 64.547 12.4914 67.127 11.9314C69.707 11.3714 72.797 12.2714 73.917 14.6614C75.127 17.2614 73.507 20.4214 71.187 22.0914C74.947 26.4914 77.207 32.1514 77.517 37.9414" stroke="#681543" stroke-width="2" stroke-miterlimit="10" stroke-linecap="round"/>
<path d="M65.4568 30.2614V35.2414" stroke="#681543" stroke-width="2" stroke-miterlimit="10" stroke-linecap="round"/>
<path d="M33.8268 17.2313C31.5968 15.5713 30.7268 12.5413 31.0268 9.77134C31.2968 7.28134 32.4368 4.87134 34.3068 3.21134C36.1768 1.55134 38.7768 0.691343 41.2468 1.10134C44.1368 1.57134 46.5968 3.73134 47.8368 6.38134C49.0768 9.03134 49.1968 12.1213 48.5968 14.9813" stroke="#681543" stroke-width="2" stroke-miterlimit="10" stroke-linecap="round"/>
</svg>
