<svg width="75" height="65" viewBox="0 0 75 65" fill="none" xmlns="http://www.w3.org/2000/svg">
<path d="M7.96655 16.11C16.4266 16.01 24.8966 15.91 33.3566 15.81C34.1066 15.81 34.9166 15.77 35.4966 15.29C36.2166 14.7 36.3066 13.66 36.3466 12.73C36.4966 9.26997 36.6566 5.80998 36.8066 2.34998" stroke="#681543" stroke-width="4" stroke-miterlimit="10" stroke-linecap="round"/>
<path d="M43.2065 15.65C52.2565 15.91 61.3265 15.86 70.3765 15.51" stroke="#681543" stroke-width="4" stroke-miterlimit="10" stroke-linecap="round"/>
<path d="M36.8066 2.36C28.9166 2.36 26.3666 2.08 15.8566 2C15.8266 2 15.7966 2 15.7166 2.03C11.2766 6.49 6.82663 10.95 2.04663 15.4C1.93663 31.2 2.03663 47.01 2.18663 62.81C25.2366 62.89 48.2866 62.96 71.2466 62.81C72.3466 46.89 72.7266 30.92 72.6066 15.03C68.1666 10.2 63.2066 5.85 57.9366 2.39C51.5466 2.69 53.0966 2.37 46.8466 2.37C43.1066 2.37 38.4966 2.12 36.8066 2.37V2.36Z" stroke="#681543" stroke-width="4" stroke-miterlimit="10" stroke-linecap="round"/>
<path d="M36.4067 32.44C38.2467 29.44 40.7367 27.38 43.7367 27.26C46.7367 27.14 49.9367 29.54 50.4767 32.44C51.0167 35.34 50.7867 37.35 49.6967 40.15C48.6067 42.95 46.6067 45.33 44.3167 47.27C42.0267 49.21 39.4267 50.77 36.9267 52.43C33.6767 50.75 30.4367 48.97 27.7167 46.53C24.9967 44.09 22.8167 40.88 22.2367 37.27C21.6867 33.9 22.7067 30.13 25.5467 28.11C27.1867 26.94 29.3067 26.55 31.2567 27.08C34.0967 27.84 34.9567 30.26 36.4067 32.44Z" stroke="#681543" stroke-width="4" stroke-miterlimit="10" stroke-linecap="round"/>
</svg>
