<svg width="73" height="63" viewBox="0 0 73 63" fill="none" xmlns="http://www.w3.org/2000/svg">
<path d="M6.96655 15.11C15.4266 15.01 23.8966 14.91 32.3566 14.81C33.1066 14.81 33.9166 14.77 34.4966 14.29C35.2166 13.7 35.3066 12.66 35.3466 11.73C35.4966 8.26997 35.6566 4.80998 35.8066 1.34998" stroke="#681543" stroke-width="2" stroke-miterlimit="10" stroke-linecap="round"/>
<path d="M42.2065 14.65C51.2565 14.91 60.3265 14.86 69.3765 14.51" stroke="#681543" stroke-width="2" stroke-miterlimit="10" stroke-linecap="round"/>
<path d="M35.8066 1.36C27.9166 1.36 25.3666 1.08 14.8566 1C14.8266 1 14.7966 1 14.7166 1.03C10.2766 5.49 5.82663 9.95 1.04663 14.4C0.936632 30.2 1.03663 46.01 1.18663 61.81C24.2366 61.89 47.2866 61.96 70.2466 61.81C71.3466 45.89 71.7266 29.92 71.6066 14.03C67.1666 9.2 62.2066 4.85 56.9366 1.39C50.5466 1.69 52.0966 1.37 45.8466 1.37C42.1066 1.37 37.4966 1.12 35.8066 1.37V1.36Z" stroke="#681543" stroke-width="2" stroke-miterlimit="10" stroke-linecap="round"/>
<path d="M35.4067 31.44C37.2467 28.44 39.7367 26.38 42.7367 26.26C45.7367 26.14 48.9367 28.54 49.4767 31.44C50.0167 34.34 49.7867 36.35 48.6967 39.15C47.6067 41.95 45.6067 44.33 43.3167 46.27C41.0267 48.21 38.4267 49.77 35.9267 51.43C32.6767 49.75 29.4367 47.97 26.7167 45.53C23.9967 43.09 21.8167 39.88 21.2367 36.27C20.6867 32.9 21.7067 29.13 24.5467 27.11C26.1867 25.94 28.3067 25.55 30.2567 26.08C33.0967 26.84 33.9567 29.26 35.4067 31.44Z" stroke="#681543" stroke-width="2" stroke-miterlimit="10" stroke-linecap="round"/>
</svg>
