<svg width="1473" height="120" viewBox="0 0 1473 120" fill="none" xmlns="http://www.w3.org/2000/svg">
<path d="M172.6 56L193.5 94H204.8L179.2 48.6L200.9 24H198L162.6 63.8V24H153.3V94H162.6V67.4L172.6 56ZM203.223 93.9H205.323L212.223 76.4H245.423L252.523 93.9H263.723L235.123 24H230.423L203.223 93.9ZM228.423 34.8L244.523 74.4H212.923L228.423 34.8ZM268.976 24L272.976 29.5V94H275.276V32L323.776 94H325.776V24H323.476V78.5L280.676 24H268.976ZM333.105 93.9H335.205L342.105 76.4H375.305L382.405 93.9H393.605L365.005 24H360.305L333.105 93.9ZM358.305 34.8L374.405 74.4H342.805L358.305 34.8ZM410.159 24H400.859V94H441.759V82.9C435.359 89 427.659 91.7 417.859 91.7H410.159V24ZM464.05 26.3C473.85 26.3 481.55 29 487.95 35.1V24H447.05V94H488.05V82.9C481.65 89 473.95 91.7 464.15 91.7H456.35V58.6H480.05V56.3H456.35V26.3H464.05ZM498.613 94H507.913V62C511.813 62 516.413 61.9 519.712 61.6L539.313 94H550.213L529.513 59.8C539.513 57.2 544.712 52 544.712 43.4C544.712 24.9 530.413 24 508.913 24H498.613V94ZM507.913 26.4C522.712 26.4 535.413 25.5 535.413 42.2C535.413 57.1 525.013 59.7 507.913 59.7V26.4Z" fill="black"/>
<line y1="59.5" x2="96" y2="59.5" stroke="black"/>
<line x1="600" y1="59.5" x2="1473" y2="59.5" stroke="black"/>
</svg>
