<svg width="720" height="352" viewBox="0 0 720 352" fill="none" xmlns="http://www.w3.org/2000/svg">
<rect width="156" height="255" fill="white"/>
<path d="M24.2191 31V73H40.5991C53.4991 73 60.8791 65.14 60.8791 52.24C60.8791 39.34 51.0991 31 38.1991 31H24.2191ZM29.7991 32.38H38.1991C47.0791 32.38 55.2991 39.7 55.2991 51.52C55.2991 63.46 49.4791 71.62 40.5991 71.62H29.7991V32.38ZM63.8547 57.52C63.8547 66.64 70.5147 73.6 79.6947 73.6C86.4147 73.6 90.1947 69.16 93.3147 62.86C93.3747 62.68 92.8347 62.14 92.6547 62.44C90.1347 66.52 86.8947 70.24 81.6147 70.24C73.1547 70.24 69.4347 62.8 69.4347 56.8V55.66H86.1147C90.3747 55.66 92.4147 53.2 92.4147 50.2C92.4147 45.88 88.3947 40.6 80.7147 40.6C71.0547 40.6 63.8547 47.74 63.8547 57.52ZM69.4347 54.76C70.3947 47.68 74.8947 41.5 80.4747 41.5C85.7547 41.5 88.0347 45.28 88.0347 48.82C88.0347 51.88 86.2947 54.76 83.2947 54.76H69.4347ZM107.762 73.66C110.882 73.66 113.162 71.56 115.682 67.6C115.802 67.36 115.082 66.82 114.902 67.06C113.042 69.82 111.542 70.84 109.742 70.84C107.462 70.84 105.842 69.16 105.842 65.02V43.12H113.402L114.242 41.32H105.902V30.82C105.902 30.58 105.122 30.46 105.002 30.82C103.922 36.46 100.682 41.56 95.6416 41.56L95.4016 43.12H100.262V65.32C100.262 71.32 103.682 73.66 107.762 73.66Z" fill="black"/>
<path d="M55.5973 141L86.9473 198H103.897L65.4973 129.9L98.0473 93H93.6973L40.5973 152.7V93H26.6473V198H40.5973V158.1L55.5973 141ZM139.712 199.65C163.862 199.65 180.062 182.55 180.062 158.4C180.062 134.25 163.862 117 139.712 117C115.712 117 99.6621 134.25 99.6621 158.4C99.6621 182.55 115.712 199.65 139.712 199.65ZM139.712 197.1C123.212 197.1 113.612 180.75 113.612 158.4C113.612 136.05 123.212 119.55 139.712 119.55C156.362 119.55 166.112 136.05 166.112 158.25C166.112 180.6 156.362 197.1 139.712 197.1ZM186.618 127.8C189.318 124.35 191.568 122.7 194.118 122.7C197.568 122.7 198.918 125.7 198.918 129.9V198H212.868V139.65L219.018 132.45C223.968 126.6 229.368 124.2 234.018 124.2C242.718 124.2 249.468 132.15 249.468 141.6V186.75C249.468 190.95 250.818 199.35 260.718 199.35C267.018 199.35 273.768 195.15 277.668 189.75C277.968 189.15 276.168 187.65 275.718 188.4C273.018 191.85 270.768 193.5 268.218 193.5C264.768 193.5 263.418 190.5 263.418 186.3V141.6C263.418 126 253.968 117.15 242.268 117.15C234.168 117.15 224.868 121.5 217.068 130.95L212.868 136.05V129.45C212.868 125.25 211.518 116.85 201.618 116.85C195.318 116.85 188.568 121.05 184.668 126.45C184.368 127.05 186.168 128.55 186.618 127.8ZM315.178 117C295.228 117 280.528 129.45 280.528 145.35C280.528 156.75 289.828 166.35 300.928 170.85C293.878 174 288.028 179.1 288.028 187.5C288.028 189.6 288.928 193.95 293.128 196.65C285.628 202.5 277.978 207.45 277.978 217.65C277.978 229.35 293.128 237.75 316.378 237.75C336.628 237.75 357.028 224.25 357.028 208.35C357.028 198.3 349.078 186.6 329.728 186.6H305.128C298.828 186.6 296.428 184.5 296.578 181.65C296.578 178.5 299.428 174.6 303.328 171.9C306.628 172.8 311.278 173.4 315.028 173.4C334.078 173.4 349.378 160.95 349.378 145.2C349.378 135.45 343.678 127.35 335.278 122.4C336.478 121.35 337.678 120.9 338.878 120.9C342.028 120.9 345.178 124.05 348.028 126.9C349.228 128.1 350.578 128.55 351.928 128.55C356.878 128.55 361.528 121.95 357.178 117.6C354.778 115.2 349.978 113.7 346.528 113.7C340.378 113.7 337.378 116.1 333.028 121.2C327.628 118.5 321.478 117 315.178 117ZM294.478 145.35C294.478 130.65 301.528 119.25 315.028 119.25C328.528 119.25 335.428 130.65 335.428 145.35C335.428 159.15 328.528 171.15 315.178 171.15C301.528 171.15 294.478 159.15 294.478 145.35ZM316.378 235.5C297.928 235.5 287.728 224.55 287.728 214.8C287.728 207.75 290.878 202.5 295.228 197.85C297.028 198.45 300.028 199.05 302.578 199.05H328.828C343.678 199.05 345.628 208.5 345.628 212.85C345.628 226.5 330.328 235.5 316.378 235.5ZM363.773 159.3C363.773 182.1 380.423 199.5 403.373 199.5C420.173 199.5 429.623 188.4 437.423 172.65C437.573 172.2 436.223 170.85 435.773 171.6C429.473 181.8 421.373 191.1 408.173 191.1C387.023 191.1 377.723 172.5 377.723 157.5V154.65H419.423C430.073 154.65 435.173 148.5 435.173 141C435.173 130.2 425.123 117 405.923 117C381.773 117 363.773 134.85 363.773 159.3ZM377.723 152.4C380.123 134.7 391.373 119.25 405.323 119.25C418.523 119.25 424.223 128.7 424.223 137.55C424.223 145.2 419.873 152.4 412.373 152.4H377.723ZM466.191 86.7C466.191 85.5 465.441 85.35 463.941 85.65C457.491 86.85 448.641 87.9 442.341 89.1C441.741 89.25 441.741 91.2 442.491 91.2C451.341 90.75 452.241 96.9 452.241 105.75V186.75C452.241 190.95 453.591 199.35 463.491 199.35C469.791 199.35 476.541 195.15 480.441 189.75C480.741 189.15 478.941 187.65 478.491 188.4C475.791 191.85 473.541 193.5 470.991 193.5C467.541 193.5 466.191 190.5 466.191 186.3V86.7ZM500.613 99.6C505.113 99.6 508.113 96.6 508.113 92.55C508.113 88.5 504.813 85.5 500.613 85.5C496.113 85.5 493.113 88.8 493.113 92.55C493.113 96.75 496.413 99.6 500.613 99.6ZM508.863 117.9C508.863 116.7 508.113 116.55 506.613 116.85C500.163 118.05 491.313 119.1 485.013 120.3C484.413 120.45 484.413 122.4 485.163 122.4C494.013 121.95 494.913 128.1 494.913 136.95V186.75C494.913 190.95 496.263 199.35 506.163 199.35C512.463 199.35 519.213 195.15 523.113 189.75C523.413 189.15 521.613 187.65 521.163 188.4C518.463 191.85 516.213 193.5 513.663 193.5C510.213 193.5 508.863 190.5 508.863 186.3V117.9ZM562.59 117C542.64 117 527.94 129.45 527.94 145.35C527.94 156.75 537.24 166.35 548.34 170.85C541.29 174 535.44 179.1 535.44 187.5C535.44 189.6 536.34 193.95 540.54 196.65C533.04 202.5 525.39 207.45 525.39 217.65C525.39 229.35 540.54 237.75 563.79 237.75C584.04 237.75 604.44 224.25 604.44 208.35C604.44 198.3 596.49 186.6 577.14 186.6H552.54C546.24 186.6 543.84 184.5 543.99 181.65C543.99 178.5 546.84 174.6 550.74 171.9C554.04 172.8 558.69 173.4 562.44 173.4C581.49 173.4 596.79 160.95 596.79 145.2C596.79 135.45 591.09 127.35 582.69 122.4C583.89 121.35 585.09 120.9 586.29 120.9C589.44 120.9 592.59 124.05 595.44 126.9C596.64 128.1 597.99 128.55 599.34 128.55C604.29 128.55 608.94 121.95 604.59 117.6C602.19 115.2 597.39 113.7 593.94 113.7C587.79 113.7 584.79 116.1 580.44 121.2C575.04 118.5 568.89 117 562.59 117ZM541.89 145.35C541.89 130.65 548.94 119.25 562.44 119.25C575.94 119.25 582.84 130.65 582.84 145.35C582.84 159.15 575.94 171.15 562.59 171.15C548.94 171.15 541.89 159.15 541.89 145.35ZM563.79 235.5C545.34 235.5 535.14 224.55 535.14 214.8C535.14 207.75 538.29 202.5 542.64 197.85C544.44 198.45 547.44 199.05 549.99 199.05H576.24C591.09 199.05 593.04 208.5 593.04 212.85C593.04 226.5 577.74 235.5 563.79 235.5ZM611.186 159.3C611.186 182.1 627.836 199.5 650.786 199.5C667.586 199.5 677.036 188.4 684.836 172.65C684.986 172.2 683.636 170.85 683.186 171.6C676.886 181.8 668.786 191.1 655.586 191.1C634.436 191.1 625.136 172.5 625.136 157.5V154.65H666.836C677.486 154.65 682.586 148.5 682.586 141C682.586 130.2 672.536 117 653.336 117C629.186 117 611.186 134.85 611.186 159.3ZM625.136 152.4C627.536 134.7 638.786 119.25 652.736 119.25C665.936 119.25 671.636 128.7 671.636 137.55C671.636 145.2 667.286 152.4 659.786 152.4H625.136Z" fill="black"/>
<path d="M449.853 259V267.88C454.733 263.24 460.653 261 468.013 260.84V315H475.453V260.84C482.813 261 488.733 263.24 493.613 267.88V259H449.853ZM492.509 294.36C492.509 306.52 501.389 315.8 513.629 315.8C522.589 315.8 527.629 309.88 531.789 301.48C531.869 301.24 531.149 300.52 530.909 300.92C527.549 306.36 523.229 311.32 516.189 311.32C504.909 311.32 499.949 301.4 499.949 293.4V291.88H522.189C527.869 291.88 530.589 288.6 530.589 284.6C530.589 278.84 525.229 271.8 514.989 271.8C502.109 271.8 492.509 281.32 492.509 294.36ZM499.949 290.68C501.229 281.24 507.229 273 514.669 273C521.709 273 524.749 278.04 524.749 282.76C524.749 286.84 522.429 290.68 518.429 290.68H499.949ZM549.132 315.8C556.812 315.8 561.692 308.92 563.452 303.32H563.612V309.16C563.612 311.4 564.332 315.88 569.612 315.88C572.972 315.88 576.492 313.64 578.572 310.76C578.732 310.44 577.772 309.64 577.532 310.04C576.092 311.88 574.892 312.76 573.532 312.76C571.692 312.76 570.972 311.16 570.972 308.92V285.72C570.972 274.04 563.452 271.8 556.012 271.8C550.252 271.8 537.692 276.6 537.692 283.8C537.692 285.96 539.452 287 541.212 287C542.892 287 544.652 285.96 544.652 283.88C544.652 277.96 547.932 273.48 553.612 273.48C558.812 273.48 563.532 277.16 563.532 285V289.08C560.012 289.72 556.892 290.36 554.172 291.08C540.652 294.6 536.812 299.4 536.812 305.64C536.812 311.88 542.412 315.8 549.132 315.8ZM552.172 311.56C547.772 311.56 543.932 308.44 543.932 303.64C543.932 300.44 544.492 295.56 554.572 292.28C556.972 291.56 559.932 290.84 563.532 290.28V300.36C561.452 307.08 557.692 311.56 552.172 311.56ZM596.599 315.88C600.759 315.88 603.799 313.08 607.159 307.8C607.319 307.48 606.359 306.76 606.119 307.08C603.639 310.76 601.639 312.12 599.239 312.12C596.199 312.12 594.039 309.88 594.039 304.36V275.16H604.119L605.239 272.76H594.119V258.76C594.119 258.44 593.079 258.28 592.919 258.76C591.479 266.28 587.159 273.08 580.439 273.08L580.119 275.16H586.599V304.76C586.599 312.76 591.159 315.88 596.599 315.88ZM609.931 294.36C609.931 306.52 618.811 315.8 631.051 315.8C640.011 315.8 645.051 309.88 649.211 301.48C649.291 301.24 648.571 300.52 648.331 300.92C644.971 306.36 640.651 311.32 633.611 311.32C622.331 311.32 617.371 301.4 617.371 293.4V291.88H639.611C645.291 291.88 648.011 288.6 648.011 284.6C648.011 278.84 642.651 271.8 632.411 271.8C619.531 271.8 609.931 281.32 609.931 294.36ZM617.371 290.68C618.651 281.24 624.651 273 632.091 273C639.131 273 642.171 278.04 642.171 282.76C642.171 286.84 639.851 290.68 635.851 290.68H617.371ZM664.554 315V282.6L670.474 276.76C671.274 275.96 672.074 275.64 672.874 275.64C674.554 275.64 676.154 277.24 677.674 278.76C678.314 279.4 679.034 279.64 679.754 279.64C682.394 279.64 684.874 276.12 682.554 273.8C681.274 272.52 678.714 271.72 676.874 271.72C672.474 271.72 671.434 273.88 666.794 278.52L664.554 280.76V272.2C664.554 271.56 664.154 271.48 663.354 271.64C659.914 272.28 655.194 272.84 651.834 273.48C651.514 273.56 651.514 274.6 651.914 274.6C656.634 274.36 657.114 277.64 657.114 282.36V315H664.554Z" fill="black"/>
</svg>
