<svg width="364" height="378" viewBox="0 0 364 378" fill="none" xmlns="http://www.w3.org/2000/svg">
<rect width="364" height="378" fill="#D9D1DE"/>
<path d="M106.485 98H110.118V70.658H106.993L98.3217 92.805L89.6504 70.658H85.7054L86.2913 72.4548V98H87.1896V74.4468L96.4469 98H97.2671L106.485 74.4468V98ZM119.481 98.3906C123.23 98.3906 125.613 95.0314 126.472 92.2972H126.551V95.1486C126.551 96.2423 126.902 98.4297 129.48 98.4297C131.121 98.4297 132.839 97.336 133.855 95.9298C133.933 95.7736 133.464 95.383 133.347 95.5783C132.644 96.4767 132.058 96.9063 131.394 96.9063C130.496 96.9063 130.144 96.1251 130.144 95.0314V83.704C130.144 78.0013 126.472 76.9076 122.84 76.9076C120.027 76.9076 113.895 79.2512 113.895 82.7666C113.895 83.8212 114.754 84.329 115.614 84.329C116.434 84.329 117.293 83.8212 117.293 82.8057C117.293 79.9152 118.895 77.7279 121.668 77.7279C124.207 77.7279 126.511 79.5246 126.511 83.3525V85.3446C124.793 85.657 123.269 85.9695 121.941 86.3211C115.34 88.0397 113.465 90.3833 113.465 93.43C113.465 96.4767 116.2 98.3906 119.481 98.3906ZM120.965 96.3204C118.817 96.3204 116.942 94.7971 116.942 92.4535C116.942 90.8911 117.215 88.5084 122.137 86.907C123.309 86.5554 124.754 86.2039 126.511 85.9305V90.852C125.496 94.1331 123.66 96.3204 120.965 96.3204ZM141.719 98.3906C145.469 98.3906 147.851 95.0314 148.711 92.2972H148.789V95.1486C148.789 96.2423 149.14 98.4297 151.718 98.4297C153.359 98.4297 155.077 97.336 156.093 95.9298C156.171 95.7736 155.702 95.383 155.585 95.5783C154.882 96.4767 154.296 96.9063 153.632 96.9063C152.734 96.9063 152.382 96.1251 152.382 95.0314V83.704C152.382 78.0013 148.711 76.9076 145.078 76.9076C142.266 76.9076 136.133 79.2512 136.133 82.7666C136.133 83.8212 136.993 84.329 137.852 84.329C138.672 84.329 139.532 83.8212 139.532 82.8057C139.532 79.9152 141.133 77.7279 143.906 77.7279C146.445 77.7279 148.75 79.5246 148.75 83.3525V85.3446C147.031 85.657 145.508 85.9695 144.18 86.3211C137.579 88.0397 135.704 90.3833 135.704 93.43C135.704 96.4767 138.438 98.3906 141.719 98.3906ZM143.203 96.3204C141.055 96.3204 139.18 94.7971 139.18 92.4535C139.18 90.8911 139.453 88.5084 144.375 86.907C145.547 86.5554 146.992 86.2039 148.75 85.9305V90.852C147.734 94.1331 145.898 96.3204 143.203 96.3204ZM157.2 79.7199C157.903 78.8215 158.489 78.3919 159.153 78.3919C160.051 78.3919 160.403 79.1731 160.403 80.2668V98H164.035V82.8057L165.637 80.9308C166.926 79.4074 168.332 78.7825 169.543 78.7825C171.808 78.7825 173.566 80.8527 173.566 83.3134V95.0705C173.566 96.1642 173.917 98.3515 176.495 98.3515C178.136 98.3515 179.894 97.2579 180.909 95.8517C180.987 95.6955 180.519 95.3049 180.401 95.5002C179.698 96.3985 179.112 96.8282 178.448 96.8282C177.55 96.8282 177.199 96.047 177.199 94.9533V83.3134C177.199 79.2512 174.738 76.9467 171.691 76.9467C169.582 76.9467 167.16 78.0794 165.129 80.5402L164.035 81.8682V80.1496C164.035 79.0559 163.684 76.8685 161.106 76.8685C159.465 76.8685 157.708 77.9622 156.692 79.3684C156.614 79.5246 157.083 79.9152 157.2 79.7199ZM182.123 87.9225C182.123 93.8596 186.458 98.3906 192.435 98.3906C196.809 98.3906 199.27 95.5002 201.301 91.3989C201.34 91.2817 200.989 90.9301 200.872 91.1254C199.231 93.7815 197.122 96.2032 193.685 96.2032C188.177 96.2032 185.755 91.3598 185.755 87.4538V86.7117H196.614C199.387 86.7117 200.715 85.1102 200.715 83.1572C200.715 80.3449 198.098 76.9076 193.099 76.9076C186.81 76.9076 182.123 81.5557 182.123 87.9225ZM185.755 86.1258C186.38 81.5167 189.31 77.4935 192.942 77.4935C196.38 77.4935 197.864 79.9543 197.864 82.2588C197.864 84.2509 196.731 86.1258 194.778 86.1258H185.755ZM204.574 96.7891C205.941 97.4532 209.495 98.4297 211.722 98.4297C215.315 98.4297 219.417 96.1642 219.417 91.516C219.417 84.1728 206.019 86.6726 206.019 81.0089C206.019 78.6653 207.777 77.4935 210.042 77.4935C212.933 77.4935 216.253 79.3293 217.385 85.2274C217.385 85.3055 217.854 85.2274 217.854 85.1102L216.995 78.1966C214.808 77.6107 212.151 76.9076 209.925 76.9076C207.152 76.9076 203.636 78.2747 203.636 82.5322C203.636 90.3052 217.034 87.61 217.034 93.469C217.034 95.8517 214.886 97.8438 211.605 97.8438C208.831 97.8438 205.55 95.1486 204.222 89.6412C204.183 89.4459 203.636 89.6021 203.636 89.7193L204.574 96.7891ZM228.825 98.4297C230.856 98.4297 232.34 97.0626 233.981 94.4846C234.059 94.3284 233.59 93.9768 233.473 94.1331C232.262 95.9298 231.286 96.5938 230.114 96.5938C228.63 96.5938 227.575 95.5002 227.575 92.805V78.5481H232.496L233.043 77.3763H227.614V70.5408C227.614 70.3846 227.106 70.3065 227.028 70.5408C226.325 74.2125 224.216 77.5326 220.935 77.5326L220.778 78.5481H223.942V93.0003C223.942 96.9063 226.169 98.4297 228.825 98.4297ZM235.334 87.9225C235.334 93.8596 239.67 98.3906 245.646 98.3906C250.021 98.3906 252.482 95.5002 254.513 91.3989C254.552 91.2817 254.2 90.9301 254.083 91.1254C252.443 93.7815 250.333 96.2032 246.896 96.2032C241.389 96.2032 238.967 91.3598 238.967 87.4538V86.7117H249.826C252.599 86.7117 253.927 85.1102 253.927 83.1572C253.927 80.3449 251.31 76.9076 246.31 76.9076C240.022 76.9076 235.334 81.5557 235.334 87.9225ZM238.967 86.1258C239.592 81.5167 242.521 77.4935 246.154 77.4935C249.591 77.4935 251.076 79.9543 251.076 82.2588C251.076 84.2509 249.943 86.1258 247.99 86.1258H238.967ZM256.223 79.7199C256.926 78.8215 257.512 78.3919 258.176 78.3919C259.074 78.3919 259.426 79.1731 259.426 80.2668V98H263.059V82.8057L264.66 80.9308C265.949 79.4074 267.355 78.7825 268.566 78.7825C270.831 78.7825 272.589 80.8527 272.589 83.3134V95.0705C272.589 96.1642 272.941 98.3515 275.519 98.3515C277.159 98.3515 278.917 97.2579 279.932 95.8517C280.011 95.6955 279.542 95.3049 279.425 95.5002C278.722 96.3985 278.136 96.8282 277.472 96.8282C276.573 96.8282 276.222 96.047 276.222 94.9533V83.3134C276.222 79.2512 273.761 76.9467 270.714 76.9467C268.605 76.9467 266.183 78.0794 264.152 80.5402L263.059 81.8682V80.1496C263.059 79.0559 262.707 76.8685 260.129 76.8685C258.488 76.8685 256.731 77.9622 255.715 79.3684C255.637 79.5246 256.106 79.9152 256.223 79.7199ZM87.7552 202H91.3878V189.501C92.9112 189.501 94.7079 189.462 95.9969 189.345L103.653 202H107.91L99.8248 188.641C103.731 187.626 105.762 185.595 105.762 182.236C105.762 175.01 100.176 174.658 91.7784 174.658H87.7552V202ZM91.3878 175.595C97.1687 175.595 102.129 175.244 102.129 181.767C102.129 187.587 98.0671 188.602 91.3878 188.602V175.595ZM114.045 202.391C117.795 202.391 120.177 199.031 121.037 196.297H121.115V199.149C121.115 200.242 121.466 202.43 124.044 202.43C125.685 202.43 127.404 201.336 128.419 199.93C128.497 199.774 128.029 199.383 127.911 199.578C127.208 200.477 126.622 200.906 125.958 200.906C125.06 200.906 124.708 200.125 124.708 199.031V187.704C124.708 182.001 121.037 180.908 117.404 180.908C114.592 180.908 108.459 183.251 108.459 186.767C108.459 187.821 109.319 188.329 110.178 188.329C110.998 188.329 111.858 187.821 111.858 186.806C111.858 183.915 113.459 181.728 116.232 181.728C118.771 181.728 121.076 183.525 121.076 187.352V189.345C119.357 189.657 117.834 189.97 116.506 190.321C109.905 192.04 108.03 194.383 108.03 197.43C108.03 200.477 110.764 202.391 114.045 202.391ZM115.529 200.32C113.381 200.32 111.506 198.797 111.506 196.453C111.506 194.891 111.78 192.508 116.701 190.907C117.873 190.555 119.318 190.204 121.076 189.93V194.852C120.06 198.133 118.224 200.32 115.529 200.32ZM129.135 174.189C131.44 174.072 131.674 175.674 131.674 177.978V202H132.495L134.291 200.75C135.072 201.336 136.791 202.43 139.76 202.43C145.462 202.43 150.228 198.094 150.228 191.141C150.228 184.15 145.97 180.908 141.595 180.908C138.666 180.908 136.518 182.392 135.268 184.032L135.307 173.017C135.307 172.705 135.112 172.666 134.721 172.744C133.041 173.057 130.737 173.33 129.096 173.642C128.94 173.681 128.94 174.189 129.135 174.189ZM135.268 199.461V185.087C136.479 183.29 137.807 182.548 140.189 182.548C144.017 182.548 146.595 185.985 146.595 191.727C146.595 198.406 142.689 201.844 139.525 201.844C137.533 201.844 136.166 200.633 135.268 199.461ZM158.712 202.391C162.462 202.391 164.845 199.031 165.704 196.297H165.782V199.149C165.782 200.242 166.134 202.43 168.712 202.43C170.352 202.43 172.071 201.336 173.086 199.93C173.165 199.774 172.696 199.383 172.579 199.578C171.876 200.477 171.29 200.906 170.626 200.906C169.727 200.906 169.376 200.125 169.376 199.031V187.704C169.376 182.001 165.704 180.908 162.071 180.908C159.259 180.908 153.127 183.251 153.127 186.767C153.127 187.821 153.986 188.329 154.845 188.329C155.666 188.329 156.525 187.821 156.525 186.806C156.525 183.915 158.126 181.728 160.9 181.728C163.439 181.728 165.743 183.525 165.743 187.352V189.345C164.024 189.657 162.501 189.97 161.173 190.321C154.572 192.04 152.697 194.383 152.697 197.43C152.697 200.477 155.431 202.391 158.712 202.391ZM160.197 200.32C158.048 200.32 156.173 198.797 156.173 196.453C156.173 194.891 156.447 192.508 161.368 190.907C162.54 190.555 163.985 190.204 165.743 189.93V194.852C164.728 198.133 162.892 200.32 160.197 200.32ZM181.888 202.43C183.919 202.43 185.403 201.063 187.044 198.485C187.122 198.328 186.653 197.977 186.536 198.133C185.325 199.93 184.349 200.594 183.177 200.594C181.693 200.594 180.638 199.5 180.638 196.805V182.548H185.56L186.106 181.376H180.677V174.541C180.677 174.385 180.169 174.306 180.091 174.541C179.388 178.212 177.279 181.533 173.998 181.533L173.842 182.548H177.006V197C177.006 200.906 179.232 202.43 181.888 202.43ZM193.554 202V192.469C194.647 191.415 195.702 190.438 196.796 189.384C197.42 189.11 198.045 188.954 198.592 188.954C200.662 188.954 202.186 190.751 202.186 193.797V199.07C202.186 200.164 202.537 202.352 205.115 202.352C206.756 202.352 208.514 201.258 209.529 199.852C209.607 199.695 209.178 199.305 209.021 199.5C208.357 200.399 207.732 200.828 207.068 200.828C206.17 200.828 205.818 200.047 205.818 198.953V194.188C205.818 190.126 203.358 187.821 200.311 187.821C199.569 187.821 198.749 187.938 197.967 188.251L205.272 181.376H204.022L193.554 191.337V173.017C193.554 172.705 193.358 172.666 192.968 172.744C191.288 173.057 188.984 173.33 187.343 173.642C187.187 173.681 187.187 174.189 187.382 174.189C189.687 174.072 189.921 175.674 189.921 177.978V202H193.554ZM221.179 202.43C227.468 202.43 231.686 197.977 231.686 191.688C231.686 185.399 227.468 180.908 221.179 180.908C214.93 180.908 210.75 185.399 210.75 191.688C210.75 197.977 214.93 202.43 221.179 202.43ZM221.179 201.766C216.883 201.766 214.383 197.508 214.383 191.688C214.383 185.868 216.883 181.572 221.179 181.572C225.515 181.572 228.054 185.868 228.054 191.649C228.054 197.469 225.515 201.766 221.179 201.766ZM242.651 202.43C245.541 202.43 247.689 200.945 248.939 199.344C248.978 200.477 249.447 202.43 251.869 202.43C253.509 202.43 255.228 201.336 256.244 199.93C256.322 199.774 255.892 199.383 255.736 199.578C255.072 200.477 254.447 200.906 253.783 200.906C252.884 200.906 252.572 200.125 252.572 199.031V173.017C252.572 172.705 252.377 172.666 251.986 172.744L246.361 173.642C246.205 173.681 246.205 174.189 246.4 174.189C248.705 174.072 248.939 175.674 248.939 177.978V181.923C248.002 181.415 246.557 180.908 244.487 180.908C238.784 180.908 234.018 185.243 234.018 192.196C234.018 199.188 238.276 202.43 242.651 202.43ZM244.721 181.493C246.674 181.493 248.041 182.665 248.939 183.837V198.289C247.768 200.047 246.4 200.789 244.057 200.789C240.229 200.789 237.651 197.352 237.651 191.61C237.651 184.931 241.557 181.493 244.721 181.493ZM257.973 191.923C257.973 197.86 262.309 202.391 268.285 202.391C272.66 202.391 275.121 199.5 277.152 195.399C277.191 195.282 276.839 194.93 276.722 195.125C275.082 197.782 272.972 200.203 269.535 200.203C264.028 200.203 261.606 195.36 261.606 191.454V190.712H272.464C275.238 190.712 276.566 189.11 276.566 187.157C276.566 184.345 273.949 180.908 268.949 180.908C262.66 180.908 257.973 185.556 257.973 191.923ZM261.606 190.126C262.231 185.517 265.16 181.493 268.793 181.493C272.23 181.493 273.714 183.954 273.714 186.259C273.714 188.251 272.582 190.126 270.629 190.126H261.606ZM145.778 284.205C145.7 284.478 146.52 284.595 146.599 284.361C147.848 281.275 150.348 279.713 152.614 279.713C155.426 279.713 158.043 282.134 158.043 286.861C158.043 293.93 150.387 301.547 145.505 306H162.847V302.485H150.348C154.684 299.086 161.402 292.173 161.793 286.04C162.105 281.08 158.551 278.267 153.668 278.267C150.036 278.267 146.755 280.884 145.778 284.205ZM176.943 306.43C183.857 306.43 188.583 300.883 188.583 292.329C188.583 283.775 183.857 278.228 176.904 278.228C169.99 278.228 165.264 283.775 165.264 292.329C165.264 300.883 169.99 306.43 176.943 306.43ZM176.904 305.57C172.178 305.57 168.818 300.102 168.818 292.329C168.818 284.556 172.178 279.088 176.904 279.088C181.669 279.088 185.028 284.556 185.028 292.329C185.028 300.102 181.669 305.57 176.904 305.57ZM199.735 306L209.109 278.658H210.711L201.376 306H199.735ZM198.798 278.306C195.907 278.306 193.251 280.923 193.251 285.611C193.251 290.298 195.907 292.72 198.798 292.72C201.688 292.72 204.344 290.298 204.344 285.611C204.344 280.923 201.688 278.306 198.798 278.306ZM198.798 292.407C197.235 292.407 195.321 291.118 195.321 285.572C195.321 280.025 197.235 278.619 198.798 278.619C200.36 278.619 202.274 280.025 202.274 285.572C202.274 291.118 200.36 292.407 198.798 292.407ZM211.766 291.899C208.875 291.899 206.18 294.516 206.18 299.204C206.18 303.891 208.875 306.312 211.766 306.312C214.656 306.312 217.312 303.891 217.312 299.204C217.312 294.516 214.656 291.899 211.766 291.899ZM211.766 306C210.203 306 208.25 304.711 208.25 299.164C208.25 293.618 210.203 292.212 211.766 292.212C213.289 292.212 215.242 293.618 215.242 299.164C215.242 304.711 213.289 306 211.766 306Z" fill="#681543"/>
</svg>
