<svg width="240" height="36" viewBox="0 0 240 36" fill="none" xmlns="http://www.w3.org/2000/svg">
<mask id="path-1-inside-1_1136_1808" fill="white">
<path d="M120 0H160V36H120V0Z"/>
</mask>
<path d="M120 0H160V36H120V0Z" fill="white"/>
<path d="M120 0V-1H119V0H120ZM120 36H119V37H120V36ZM120 1H160V-1H120V1ZM160 35H120V37H160V35ZM121 36V0H119V36H121Z" fill="black" mask="url(#path-1-inside-1_1136_1808)"/>
<mask id="path-3-inside-2_1136_1808" fill="white">
<path d="M160 0H200V36H160V0Z"/>
</mask>
<path d="M160 0H200V36H160V0Z" fill="white"/>
<path d="M181.547 14.5547H181.781V16.0938H181.648C180.977 16.0938 180.396 16.1979 179.906 16.4062C179.422 16.6146 179.023 16.901 178.711 17.2656C178.398 17.6302 178.164 18.0573 178.008 18.5469C177.857 19.0312 177.781 19.5469 177.781 20.0938V21.8828C177.781 22.3359 177.831 22.737 177.93 23.0859C178.029 23.4297 178.167 23.7188 178.344 23.9531C178.526 24.1823 178.734 24.3568 178.969 24.4766C179.203 24.5964 179.456 24.6562 179.727 24.6562C180.008 24.6562 180.263 24.599 180.492 24.4844C180.721 24.3646 180.917 24.2005 181.078 23.9922C181.24 23.7839 181.362 23.5365 181.445 23.25C181.529 22.9635 181.57 22.651 181.57 22.3125C181.57 21.9896 181.529 21.6875 181.445 21.4062C181.367 21.1198 181.25 20.8698 181.094 20.6562C180.938 20.4375 180.742 20.2682 180.508 20.1484C180.279 20.0234 180.013 19.9609 179.711 19.9609C179.336 19.9609 178.995 20.0495 178.688 20.2266C178.385 20.4036 178.141 20.6354 177.953 20.9219C177.771 21.2031 177.672 21.5026 177.656 21.8203L176.938 21.5859C176.979 21.1016 177.086 20.6667 177.258 20.2812C177.435 19.8958 177.667 19.5677 177.953 19.2969C178.24 19.026 178.57 18.8203 178.945 18.6797C179.326 18.5339 179.742 18.4609 180.195 18.4609C180.747 18.4609 181.227 18.5651 181.633 18.7734C182.039 18.9818 182.375 19.2656 182.641 19.625C182.911 19.9792 183.112 20.3854 183.242 20.8438C183.378 21.2969 183.445 21.7708 183.445 22.2656C183.445 22.8125 183.362 23.3229 183.195 23.7969C183.029 24.2656 182.784 24.6771 182.461 25.0312C182.143 25.3854 181.755 25.6615 181.297 25.8594C180.844 26.0573 180.328 26.1562 179.75 26.1562C179.141 26.1562 178.596 26.0391 178.117 25.8047C177.643 25.5703 177.24 25.2474 176.906 24.8359C176.578 24.4245 176.328 23.9505 176.156 23.4141C175.984 22.8776 175.898 22.3099 175.898 21.7109V20.9297C175.898 20.0651 176.008 19.25 176.227 18.4844C176.445 17.7135 176.781 17.0339 177.234 16.4453C177.693 15.8568 178.279 15.3958 178.992 15.0625C179.706 14.724 180.557 14.5547 181.547 14.5547Z" fill="black"/>
<path d="M160 0V-1H159V0H160ZM160 36H159V37H160V36ZM160 1H200V-1H160V1ZM200 35H160V37H200V35ZM161 36V0H159V36H161Z" fill="black" mask="url(#path-3-inside-2_1136_1808)"/>
<path d="M200.5 0.5H239.5V35.5H200.5V0.5Z" fill="black"/>
<path d="M218.635 9.65834L226.358 17.3583C226.45 17.45 226.515 17.5493 226.553 17.6563C226.591 17.7632 226.61 17.8778 226.61 18C226.61 18.1222 226.591 18.2368 226.553 18.3438C226.515 18.4507 226.45 18.55 226.358 18.6417L218.635 26.3646C218.422 26.5785 218.154 26.6854 217.833 26.6854C217.512 26.6854 217.237 26.5708 217.008 26.3417C216.779 26.1125 216.665 25.8451 216.665 25.5396C216.665 25.234 216.779 24.9667 217.008 24.7375L223.746 18L217.008 11.2625C216.794 11.0486 216.687 10.7852 216.687 10.4723C216.687 10.1588 216.802 9.88751 217.031 9.65834C217.26 9.42917 217.528 9.31459 217.833 9.31459C218.139 9.31459 218.406 9.42917 218.635 9.65834V9.65834Z" fill="white"/>
<path d="M200.5 0.5H239.5V35.5H200.5V0.5Z" stroke="black"/>
<mask id="path-8-inside-3_1136_1808" fill="white">
<path d="M80 0H120V36H80V0Z"/>
</mask>
<path d="M80 0H120V36H80V0Z" fill="white"/>
<path d="M80 0V-1H79V0H80ZM80 36H79V37H80V36ZM80 1H120V-1H80V1ZM120 35H80V37H120V35ZM81 36V0H79V36H81Z" fill="black" mask="url(#path-8-inside-3_1136_1808)"/>
<mask id="path-10-inside-4_1136_1808" fill="white">
<path d="M40 0H80V36H40V0Z"/>
</mask>
<path d="M40 0H80V36H40V0Z" fill="white"/>
<path d="M40 -1H80V1H40V-1ZM80 37H40V35H80V37ZM40 36V0V36ZM80 0V36V0Z" fill="black" mask="url(#path-10-inside-4_1136_1808)"/>
<path d="M62 12.5859V24H60.1172V14.8203L57.3281 15.7656V14.2109L61.7734 12.5859H62Z" fill="black"/>
<path d="M104.484 22.5V24H96.8594V22.7109L100.562 18.6719C100.969 18.2135 101.289 17.8177 101.523 17.4844C101.758 17.151 101.922 16.8516 102.016 16.5859C102.115 16.3151 102.164 16.0521 102.164 15.7969C102.164 15.4375 102.096 15.1224 101.961 14.8516C101.831 14.5755 101.638 14.3594 101.383 14.2031C101.128 14.0417 100.818 13.9609 100.453 13.9609C100.031 13.9609 99.6771 14.0521 99.3906 14.2344C99.1042 14.4167 98.888 14.6693 98.7422 14.9922C98.5964 15.3099 98.5234 15.6745 98.5234 16.0859H96.6406C96.6406 15.4245 96.7917 14.8203 97.0938 14.2734C97.3958 13.7214 97.8333 13.2839 98.4062 12.9609C98.9792 12.6328 99.6693 12.4688 100.477 12.4688C101.237 12.4688 101.883 12.5964 102.414 12.8516C102.945 13.1068 103.349 13.4688 103.625 13.9375C103.906 14.4062 104.047 14.9609 104.047 15.6016C104.047 15.9557 103.99 16.3073 103.875 16.6562C103.76 17.0052 103.596 17.3542 103.383 17.7031C103.174 18.0469 102.927 18.3932 102.641 18.7422C102.354 19.0859 102.039 19.4349 101.695 19.7891L99.2344 22.5H104.484Z" fill="black"/>
<path d="M133.047 23.0625C133.047 22.7708 133.146 22.526 133.344 22.3281C133.542 22.125 133.81 22.0234 134.148 22.0234C134.492 22.0234 134.76 22.125 134.953 22.3281C135.151 22.526 135.25 22.7708 135.25 23.0625C135.25 23.3542 135.151 23.599 134.953 23.7969C134.76 23.9948 134.492 24.0938 134.148 24.0938C133.81 24.0938 133.542 23.9948 133.344 23.7969C133.146 23.599 133.047 23.3542 133.047 23.0625ZM137.5 23.0625C137.5 22.7708 137.599 22.526 137.797 22.3281C137.995 22.125 138.263 22.0234 138.602 22.0234C138.945 22.0234 139.214 22.125 139.406 22.3281C139.604 22.526 139.703 22.7708 139.703 23.0625C139.703 23.3542 139.604 23.599 139.406 23.7969C139.214 23.9948 138.945 24.0938 138.602 24.0938C138.263 24.0938 137.995 23.9948 137.797 23.7969C137.599 23.599 137.5 23.3542 137.5 23.0625ZM141.953 23.0625C141.953 22.7708 142.052 22.526 142.25 22.3281C142.448 22.125 142.716 22.0234 143.055 22.0234C143.398 22.0234 143.667 22.125 143.859 22.3281C144.057 22.526 144.156 22.7708 144.156 23.0625C144.156 23.3542 144.057 23.599 143.859 23.7969C143.667 23.9948 143.398 24.0938 143.055 24.0938C142.716 24.0938 142.448 23.9948 142.25 23.7969C142.052 23.599 141.953 23.3542 141.953 23.0625Z" fill="black"/>
<path d="M0.5 0.5H39.5V35.5H0.5V0.5Z" fill="black"/>
<path d="M21.3646 26.3417L13.6417 18.6417C13.55 18.55 13.4852 18.4507 13.4473 18.3437C13.4088 18.2368 13.3896 18.1222 13.3896 18C13.3896 17.8778 13.4088 17.7632 13.4473 17.6562C13.4852 17.5493 13.55 17.45 13.6417 17.3583L21.3646 9.63541C21.5785 9.42152 21.8458 9.31458 22.1667 9.31458C22.4875 9.31458 22.7625 9.42916 22.9917 9.65833C23.2208 9.88749 23.3354 10.1549 23.3354 10.4604C23.3354 10.766 23.2208 11.0333 22.9917 11.2625L16.2542 18L22.9917 24.7375C23.2056 24.9514 23.3125 25.2148 23.3125 25.5277C23.3125 25.8412 23.1979 26.1125 22.9688 26.3417C22.7396 26.5708 22.4722 26.6854 22.1667 26.6854C21.8611 26.6854 21.5938 26.5708 21.3646 26.3417V26.3417Z" fill="white"/>
<path d="M0.5 0.5H39.5V35.5H0.5V0.5Z" stroke="black"/>
</svg>
