<svg width="1473" height="120" viewBox="0 0 1473 120" fill="none" xmlns="http://www.w3.org/2000/svg">
<path d="M144.3 24L148.3 29.5V94H150.6V32L199.1 94H201.1V24H198.8V78.5L156 24H144.3ZM231.73 65.2V94H241.03V65L263.03 24H260.43L240.33 61.3L219.13 24H208.43L231.73 65.2ZM287.323 26.3C297.123 26.3 304.823 29 311.223 35.1V24H270.323V94H311.323V82.9C304.923 89 297.223 91.7 287.423 91.7H279.623V58.6H303.323V56.3H279.623V26.3H287.323ZM327.186 93.9C334.986 93.9 339.686 94.8 347.086 94.8C359.086 94.8 373.586 87.2 373.586 71.6C373.586 48.1 328.886 58.6 328.886 36.6C328.886 28.7 334.686 25.2 342.286 25.2C349.186 25.2 363.286 24 367.186 50.1C367.186 50.4 368.386 50.6 368.386 50.2L365.186 24C357.486 24 349.686 22.9 341.886 22.9C332.586 22.9 320.886 27.4 320.886 41.6C320.886 63.9 365.586 58.6 365.586 78.2C365.586 86.1 357.686 92.5 346.686 92.5C337.486 92.5 325.286 93.9 321.286 65.5C321.186 64.8 320.086 65.3 320.086 65.6L323.986 93.9H327.186ZM374.469 24V35.1C380.569 29.3 387.969 26.5 397.169 26.3V94H406.469V26.3C415.669 26.5 423.069 29.3 429.169 35.1V24H374.469ZM454.511 26.3C464.311 26.3 472.011 29 478.411 35.1V24H437.511V94H478.511V82.9C472.111 89 464.411 91.7 454.611 91.7H446.811V58.6H470.511V56.3H446.811V26.3H454.511Z" fill="black"/>
<line y1="59.5" x2="96" y2="59.5" stroke="black"/>
<line x1="529" y1="59.5" x2="1473" y2="59.5" stroke="black"/>
</svg>
