<svg width="1473" height="120" viewBox="0 0 1473 120" fill="none" xmlns="http://www.w3.org/2000/svg">
<path d="M144 59.4C144 80.9 158.4 95.1 178.9 95.1C199.4 95.1 213.9 80.9 213.9 59.4C213.9 37.9 199.4 23.5 178.9 23.5C158.4 23.5 144 37.9 144 59.4ZM204.6 59.3C204.6 79.2 192.7 92.8 178.9 92.8C165.1 92.8 153.3 79.2 153.3 59.3C153.3 39.4 165.1 25.8 178.9 25.8C192.7 25.8 204.6 39.4 204.6 59.3ZM222.179 24V94H231.479V63C234.379 63.5 237.279 63.7 239.979 63.7C255.879 63.7 268.179 55.9 268.179 44.4C268.179 25.9 252.979 24 231.479 24H222.179ZM231.479 26.4C246.279 26.4 258.979 25.5 258.979 42.2C258.979 54.9 248.479 61.2 237.279 61.2C235.379 61.2 233.379 61 231.479 60.6V26.4ZM276.476 24V94H303.776C325.276 94 337.576 80.9 337.576 59.4C337.576 37.9 321.276 24 299.776 24H276.476ZM285.776 26.3H299.776C314.576 26.3 328.276 38.5 328.276 58.2C328.276 78.1 318.576 91.7 303.776 91.7H285.776V26.3ZM337.531 93.9H339.631L346.531 76.4H379.731L386.831 93.9H398.031L369.431 24H364.731L337.531 93.9ZM362.731 34.8L378.831 74.4H347.231L362.731 34.8ZM431.258 22.8C409.758 22.8 395.758 37.9 395.758 59.4C395.758 80.9 410.258 95.1 428.758 95.1C439.858 95.1 450.758 91.2 455.858 82.7V62.7H433.958V65H446.558V87.7C442.458 91.4 436.558 92.8 430.758 92.8C416.858 92.8 405.058 79.1 405.058 59.2C405.058 39.5 415.858 25.1 430.758 25.1C440.458 25.1 443.858 32 443.858 39C443.858 42.6 445.958 44.3 448.958 44.3C451.858 44.3 454.258 42.4 454.258 39.2C454.258 31.3 443.358 22.8 431.258 22.8Z" fill="black"/>
<line y1="59.5" x2="96" y2="59.5" stroke="black"/>
<line x1="529" y1="59.5" x2="1473" y2="59.5" stroke="black"/>
</svg>
