<svg width="1473" height="120" viewBox="0 0 1473 120" fill="none" xmlns="http://www.w3.org/2000/svg">
<path d="M121.3 24V94H130.6V63C133.5 63.5 136.4 63.7 139.1 63.7C155 63.7 167.3 55.9 167.3 44.4C167.3 25.9 152.1 24 130.6 24H121.3ZM130.6 26.4C145.4 26.4 158.1 25.5 158.1 42.2C158.1 54.9 147.6 61.2 136.4 61.2C134.5 61.2 132.5 61 130.6 60.6V26.4ZM173.297 59.4C173.297 80.9 187.697 95.1 208.197 95.1C228.697 95.1 243.197 80.9 243.197 59.4C243.197 37.9 228.697 23.5 208.197 23.5C187.697 23.5 173.297 37.9 173.297 59.4ZM233.897 59.3C233.897 79.2 221.997 92.8 208.197 92.8C194.397 92.8 182.597 79.2 182.597 59.3C182.597 39.4 194.397 25.8 208.197 25.8C221.997 25.8 233.897 39.4 233.897 59.3ZM251.476 24V94H260.776V63C263.676 63.5 266.576 63.7 269.276 63.7C285.176 63.7 297.476 55.9 297.476 44.4C297.476 25.9 282.276 24 260.776 24H251.476ZM260.776 26.4C275.576 26.4 288.276 25.5 288.276 42.2C288.276 54.9 277.776 61.2 266.576 61.2C264.676 61.2 262.676 61 260.776 60.6V26.4ZM305.773 24V69.5C305.773 92.5 320.373 95.4 330.373 95.4C344.373 95.4 355.673 89.4 355.673 69.3V24H353.373V69.7C353.373 89 341.873 93 332.473 93C324.773 93 315.073 88.9 315.073 71.3V24H305.773ZM375.62 24H366.32V94H407.22V82.9C400.82 89 393.12 91.7 383.32 91.7H375.62V24ZM412.711 93.9L419.611 76.4H442.711V94H484.711V92H453.011V58.6H476.711V56.6H453.011V26H484.711V24H437.811L410.611 93.9H412.711ZM420.311 74.4L439.211 26H442.711V74.4H420.311ZM490.636 94H499.936V62C503.836 62 508.436 61.9 511.736 61.6L531.336 94H542.236L521.536 59.8C531.536 57.2 536.736 52 536.736 43.4C536.736 24.9 522.436 24 500.936 24H490.636V94ZM499.936 26.4C514.736 26.4 527.436 25.5 527.436 42.2C527.436 57.1 517.036 59.7 499.936 59.7V26.4ZM562.421 26.3C572.221 26.3 579.921 29 586.321 35.1V24H545.421V94H586.421V82.9C580.021 89 572.321 91.7 562.521 91.7H554.721V58.6H578.421V56.3H554.721V26.3H562.421Z" fill="black"/>
<line y1="69.5" x2="96" y2="69.5" stroke="black"/>
<line x1="635" y1="69.5" x2="1473" y2="69.5" stroke="black"/>
</svg>
