<svg width="1473" height="120" viewBox="0 0 1473 120" fill="none" xmlns="http://www.w3.org/2000/svg">
<path d="M158.6 93.9C166.4 93.9 171.1 94.8 178.5 94.8C190.5 94.8 205 87.2 205 71.6C205 48.1 160.3 58.6 160.3 36.6C160.3 28.7 166.1 25.2 173.7 25.2C180.6 25.2 194.7 24 198.6 50.1C198.6 50.4 199.8 50.6 199.8 50.2L196.6 24C188.9 24 181.1 22.9 173.3 22.9C164 22.9 152.3 27.4 152.3 41.6C152.3 63.9 197 58.6 197 78.2C197 86.1 189.1 92.5 178.1 92.5C168.9 92.5 156.7 93.9 152.7 65.5C152.6 64.8 151.5 65.3 151.5 65.6L155.4 93.9H158.6ZM264.094 94H273.394V24H265.394L243.194 80.7L220.994 24H210.894L212.394 28.6V94H214.694V33.7L238.394 94H240.494L264.094 33.7V94ZM283.964 24V69.5C283.964 92.5 298.564 95.4 308.564 95.4C322.564 95.4 333.864 89.4 333.864 69.3V24H331.564V69.7C331.564 89 320.064 93 310.664 93C302.964 93 293.264 88.9 293.264 71.3V24H283.964ZM377.711 22.8C356.211 22.8 342.211 37.9 342.211 59.4C342.211 80.9 356.711 95.1 375.211 95.1C386.311 95.1 397.211 91.2 402.311 82.7V62.7H380.411V65H393.011V87.7C388.911 91.4 383.011 92.8 377.211 92.8C363.311 92.8 351.511 79.1 351.511 59.2C351.511 39.5 362.311 25.1 377.211 25.1C386.911 25.1 390.311 32 390.311 39C390.311 42.6 392.411 44.3 395.411 44.3C398.311 44.3 400.711 42.4 400.711 39.2C400.711 31.3 389.811 22.8 377.711 22.8ZM430.217 56L451.117 94H462.417L436.817 48.6L458.517 24H455.617L420.217 63.8V24H410.917V94H420.217V67.4L430.217 56ZM464.14 94H473.44V24H464.14V94ZM517.262 22.8C495.762 22.8 481.762 37.9 481.762 59.4C481.762 80.9 496.262 95.1 514.762 95.1C525.862 95.1 536.762 91.2 541.862 82.7V62.7H519.962V65H532.562V87.7C528.462 91.4 522.562 92.8 516.762 92.8C502.862 92.8 491.062 79.1 491.062 59.2C491.062 39.5 501.862 25.1 516.762 25.1C526.462 25.1 529.862 32 529.862 39C529.862 42.6 531.962 44.3 534.962 44.3C537.862 44.3 540.262 42.4 540.262 39.2C540.262 31.3 529.362 22.8 517.262 22.8Z" fill="black"/>
<line y1="59.5" x2="96" y2="59.5" stroke="black"/>
<line x1="600" y1="59.5" x2="1473" y2="59.5" stroke="black"/>
</svg>
