<svg width="1473" height="120" viewBox="0 0 1473 120" fill="none" xmlns="http://www.w3.org/2000/svg">
<path d="M151 24V35.1C157.1 29.3 164.5 26.5 173.7 26.3V94H183V26.3C192.2 26.5 199.6 29.3 205.7 35.1V24H151ZM214.042 94H223.342V24H214.042V94ZM243.264 24H233.964V94H274.864V82.9C268.464 89 260.764 91.7 250.964 91.7H243.264V24ZM332.355 94H341.655V24H333.655L311.455 80.7L289.255 24H279.155L280.655 28.6V94H282.955V33.7L306.655 94H308.755L332.355 33.7V94ZM369.226 26.3C379.026 26.3 386.726 29 393.126 35.1V24H352.226V94H393.226V82.9C386.826 89 379.126 91.7 369.326 91.7H361.526V58.6H385.226V56.3H361.526V26.3H369.226ZM403.788 24V94H431.088C452.588 94 464.888 80.9 464.888 59.4C464.888 37.9 448.588 24 427.088 24H403.788ZM413.088 26.3H427.088C441.888 26.3 455.588 38.5 455.588 58.2C455.588 78.1 445.888 91.7 431.088 91.7H413.088V26.3Z" fill="black"/>
<line y1="59.5" x2="96" y2="59.5" stroke="black"/>
<line x1="516" y1="59.5" x2="1473" y2="59.5" stroke="black"/>
</svg>
